<svg xmlns="http://www.w3.org/2000/svg" viewBox="0 0 1360 350" preserveAspectRatio="xMidYMid" width="1366" height="350" xmlns:xlink="http://www.w3.org/1999/xlink" style="shape-rendering:auto;display:block;background-position-x:0%;background-position-y:0%;background-size:auto;background-origin:padding-box;background-clip:border-box;background:scroll rgb(6, 19, 33) none  repeat;width:1366px;height:350px;;animation:none"><g><path stroke-width="2" stroke-opacity="0" stroke="rgb(231, 184, 53)" fill="none" d="M 0 194.5 C 228 194.5 455 247.5 683 247.5 C 911 247.5 1138 194.5 1366 194.5 C 1594 194.5 1821 247.5 2049 247.5 C 2277 247.5 2504 194.5 2732 194.5" transform="matrix(1,0,0,1,0,0)" style="fill:none;stroke:rgb(231, 184, 53);transform:matrix(1, 0, 0, 1, 0, 0);;animation:none"></path>
<path stroke-width="2" stroke-opacity="0" stroke="rgb(231, 184, 53)" fill="none" d="M 0 194.508 C 228 194.508 455 247.492 683 247.492 C 911 247.492 1138 194.508 1366 194.508 C 1594 194.508 1821 247.492 2049 247.492 C 2277 247.492 2504 194.508 2732 194.508" transform="matrix(1,0,0,1,-7.285219192504883,0)" style="fill:none;stroke:rgb(231, 184, 53);transform:matrix(1, 0, 0, 1, -7.28522, 0);;animation:none"></path>
<path stroke-width="2" stroke-opacity="0" stroke="rgb(231, 184, 53)" fill="none" d="M 0 194.533 C 228 194.533 455 247.467 683 247.467 C 911 247.467 1138 194.533 1366 194.533 C 1594 194.533 1821 247.467 2049 247.467 C 2277 247.467 2504 194.533 2732 194.533" transform="matrix(1,0,0,1,-14.570438385009766,0)" style="fill:none;stroke:rgb(231, 184, 53);transform:matrix(1, 0, 0, 1, -14.5704, 0);;animation:none"></path>
<path stroke-width="2" stroke-opacity="0" stroke="rgb(231, 184, 53)" fill="none" d="M 0 194.574 C 228 194.574 455 247.426 683 247.426 C 911 247.426 1138 194.574 1366 194.574 C 1594 194.574 1821 247.426 2049 247.426 C 2277 247.426 2504 194.574 2732 194.574" transform="matrix(1,0,0,1,-21.856000900268555,0)" style="fill:none;stroke:rgb(231, 184, 53);transform:matrix(1, 0, 0, 1, -21.856, 0);;animation:none"></path>
<path stroke-width="2" stroke-opacity="0" stroke="rgb(231, 184, 53)" fill="none" d="M 0 194.634 C 228 194.634 455 247.366 683 247.366 C 911 247.366 1138 194.634 1366 194.634 C 1594 194.634 1821 247.366 2049 247.366 C 2277 247.366 2504 194.634 2732 194.634" transform="matrix(1,0,0,1,-29.141218185424805,0)" style="fill:none;stroke:rgb(231, 184, 53);transform:matrix(1, 0, 0, 1, -29.1412, 0);;animation:none"></path>
<path stroke-width="2" stroke-opacity="0" stroke="rgb(231, 184, 53)" fill="none" d="M 0 194.711 C 228 194.711 455 247.289 683 247.289 C 911 247.289 1138 194.711 1366 194.711 C 1594 194.711 1821 247.289 2049 247.289 C 2277 247.289 2504 194.711 2732 194.711" transform="matrix(1,0,0,1,-36.42643737792969,0)" style="fill:none;stroke:rgb(231, 184, 53);transform:matrix(1, 0, 0, 1, -36.4264, 0);;animation:none"></path>
<path stroke-width="2" stroke-opacity="0" stroke="rgb(231, 184, 53)" fill="none" d="M 0 194.807 C 228 194.807 455 247.193 683 247.193 C 911 247.193 1138 194.807 1366 194.807 C 1594 194.807 1821 247.193 2049 247.193 C 2277 247.193 2504 194.807 2732 194.807" transform="matrix(1,0,0,1,-43.71200180053711,0)" style="fill:none;stroke:rgb(231, 184, 53);transform:matrix(1, 0, 0, 1, -43.712, 0);;animation:none"></path>
<path stroke-width="2" stroke-opacity="0" stroke="rgb(231, 184, 53)" fill="none" d="M 0 194.922 C 228 194.922 455 247.078 683 247.078 C 911 247.078 1138 194.922 1366 194.922 C 1594 194.922 1821 247.078 2049 247.078 C 2277 247.078 2504 194.922 2732 194.922" transform="matrix(1,0,0,1,-50.99721908569336,0)" style="fill:none;stroke:rgb(231, 184, 53);transform:matrix(1, 0, 0, 1, -50.9972, 0);;animation:none"></path>
<path stroke-width="2" stroke-opacity="0" stroke="rgb(231, 184, 53)" fill="none" d="M 0 195.056 C 228 195.056 455 246.943 683 246.943 C 911 246.943 1138 195.056 1366 195.056 C 1594 195.056 1821 246.943 2049 246.943 C 2277 246.943 2504 195.056 2732 195.056" transform="matrix(1,0,0,1,-58.28243637084961,0)" style="fill:none;stroke:rgb(231, 184, 53);transform:matrix(1, 0, 0, 1, -58.2824, 0);;animation:none"></path>
<path stroke-width="2" stroke-opacity="0" stroke="rgb(231, 184, 53)" fill="none" d="M 0 195.211 C 228 195.211 455 246.789 683 246.789 C 911 246.789 1138 195.211 1366 195.211 C 1594 195.211 1821 246.789 2049 246.789 C 2277 246.789 2504 195.211 2732 195.211" transform="matrix(1,0,0,1,-65.56800079345703,0)" style="fill:none;stroke:rgb(231, 184, 53);transform:matrix(1, 0, 0, 1, -65.568, 0);;animation:none"></path>
<path stroke-width="2" stroke-opacity="0" stroke="rgb(231, 184, 53)" fill="none" d="M 0 195.387 C 228 195.387 455 246.613 683 246.613 C 911 246.613 1138 195.387 1366 195.387 C 1594 195.387 1821 246.613 2049 246.613 C 2277 246.613 2504 195.387 2732 195.387" transform="matrix(1,0,0,1,-72.85321807861328,0)" style="fill:none;stroke:rgb(231, 184, 53);transform:matrix(1, 0, 0, 1, -72.8532, 0);;animation:none"></path>
<path stroke-width="2" stroke-opacity="0" stroke="rgb(231, 184, 53)" fill="none" d="M 0 195.585 C 228 195.585 455 246.415 683 246.415 C 911 246.415 1138 195.585 1366 195.585 C 1594 195.585 1821 246.415 2049 246.415 C 2277 246.415 2504 195.585 2732 195.585" transform="matrix(1,0,0,1,-80.13844299316406,0)" style="fill:none;stroke:rgb(231, 184, 53);transform:matrix(1, 0, 0, 1, -80.1384, 0);;animation:none"></path>
<path stroke-width="2" stroke-opacity="0" stroke="rgb(231, 184, 53)" fill="none" d="M 0 195.804 C 228 195.804 455 246.196 683 246.196 C 911 246.196 1138 195.804 1366 195.804 C 1594 195.804 1821 246.196 2049 246.196 C 2277 246.196 2504 195.804 2732 195.804" transform="matrix(1,0,0,1,-87.42400360107422,0)" style="fill:none;stroke:rgb(231, 184, 53);transform:matrix(1, 0, 0, 1, -87.424, 0);;animation:none"></path>
<path stroke-width="2" stroke-opacity="0" stroke="rgb(231, 184, 53)" fill="none" d="M 0 196.047 C 228 196.047 455 245.953 683 245.953 C 911 245.953 1138 196.047 1366 196.047 C 1594 196.047 1821 245.953 2049 245.953 C 2277 245.953 2504 196.047 2732 196.047" transform="matrix(1,0,0,1,-94.70921325683594,0)" style="fill:none;stroke:rgb(231, 184, 53);transform:matrix(1, 0, 0, 1, -94.7092, 0);;animation:none"></path>
<path stroke-width="2" stroke-opacity="0" stroke="rgb(231, 184, 53)" fill="none" d="M 0 196.313 C 228 196.313 455 245.687 683 245.687 C 911 245.687 1138 196.313 1366 196.313 C 1594 196.313 1821 245.687 2049 245.687 C 2277 245.687 2504 196.313 2732 196.313" transform="matrix(1,0,0,1,-101.99443817138672,0)" style="fill:none;stroke:rgb(231, 184, 53);transform:matrix(1, 0, 0, 1, -101.994, 0);;animation:none"></path>
<path stroke-width="2" stroke-opacity="0" stroke="rgb(231, 184, 53)" fill="none" d="M 0 196.603 C 228 196.603 455 245.397 683 245.397 C 911 245.397 1138 196.603 1366 196.603 C 1594 196.603 1821 245.397 2049 245.397 C 2277 245.397 2504 196.603 2732 196.603" transform="matrix(1,0,0,1,-109.27999877929688,0)" style="fill:none;stroke:rgb(231, 184, 53);transform:matrix(1, 0, 0, 1, -109.28, 0);;animation:none"></path>
<path stroke-width="2" stroke-opacity="0" stroke="rgb(231, 184, 53)" fill="none" d="M 0 196.918 C 228 196.918 455 245.082 683 245.082 C 911 245.082 1138 196.918 1366 196.918 C 1594 196.918 1821 245.082 2049 245.082 C 2277 245.082 2504 196.918 2732 196.918" transform="matrix(1,0,0,1,-116.56522369384766,0)" style="fill:none;stroke:rgb(231, 184, 53);transform:matrix(1, 0, 0, 1, -116.565, 0);;animation:none"></path>
<path stroke-width="2" stroke-opacity="0" stroke="rgb(231, 184, 53)" fill="none" d="M 0 197.258 C 228 197.258 455 244.742 683 244.742 C 911 244.742 1138 197.258 1366 197.258 C 1594 197.258 1821 244.742 2049 244.742 C 2277 244.742 2504 197.258 2732 197.258" transform="matrix(1,0,0,1,-123.8504409790039,0)" style="fill:none;stroke:rgb(231, 184, 53);transform:matrix(1, 0, 0, 1, -123.85, 0);;animation:none"></path>
<path stroke-width="2" stroke-opacity="0" stroke="rgb(231, 184, 53)" fill="none" d="M 0 197.625 C 228 197.625 455 244.375 683 244.375 C 911 244.375 1138 197.625 1366 197.625 C 1594 197.625 1821 244.375 2049 244.375 C 2277 244.375 2504 197.625 2732 197.625" transform="matrix(1,0,0,1,-131.13600158691406,0)" style="fill:none;stroke:rgb(231, 184, 53);transform:matrix(1, 0, 0, 1, -131.136, 0);;animation:none"></path>
<path stroke-width="2" stroke-opacity="0" stroke="rgb(231, 184, 53)" fill="none" d="M 0 198.019 C 228 198.019 455 243.981 683 243.981 C 911 243.981 1138 198.019 1366 198.019 C 1594 198.019 1821 243.981 2049 243.981 C 2277 243.981 2504 198.019 2732 198.019" transform="matrix(1,0,0,1,-138.4212188720703,0)" style="fill:none;stroke:rgb(231, 184, 53);transform:matrix(1, 0, 0, 1, -138.421, 0);;animation:none"></path>
<path stroke-width="2" stroke-opacity="0" stroke="rgb(231, 184, 53)" fill="none" d="M 0 198.441 C 228 198.441 455 243.559 683 243.559 C 911 243.559 1138 198.441 1366 198.441 C 1594 198.441 1821 243.559 2049 243.559 C 2277 243.559 2504 198.441 2732 198.441" transform="matrix(1,0,0,1,-145.70643615722656,0)" style="fill:none;stroke:rgb(231, 184, 53);transform:matrix(1, 0, 0, 1, -145.706, 0);;animation:none"></path>
<path stroke-width="2" stroke-opacity="0" stroke="rgb(231, 184, 53)" fill="none" d="M 0 198.891 C 228 198.891 455 243.109 683 243.109 C 911 243.109 1138 198.891 1366 198.891 C 1594 198.891 1821 243.109 2049 243.109 C 2277 243.109 2504 198.891 2732 198.891" transform="matrix(1,0,0,1,-152.99200439453125,0)" style="fill:none;stroke:rgb(231, 184, 53);transform:matrix(1, 0, 0, 1, -152.992, 0);;animation:none"></path>
<path stroke-width="2" stroke-opacity="0" stroke="rgb(231, 184, 53)" fill="none" d="M 0 199.371 C 228 199.371 455 242.629 683 242.629 C 911 242.629 1138 199.371 1366 199.371 C 1594 199.371 1821 242.629 2049 242.629 C 2277 242.629 2504 199.371 2732 199.371" transform="matrix(1,0,0,1,-160.2772216796875,0)" style="fill:none;stroke:rgb(231, 184, 53);transform:matrix(1, 0, 0, 1, -160.277, 0);;animation:none"></path>
<path stroke-width="2" stroke-opacity="0" stroke="rgb(231, 184, 53)" fill="none" d="M 0 199.88 C 228 199.88 455 242.12 683 242.12 C 911 242.12 1138 199.88 1366 199.88 C 1594 199.88 1821 242.12 2049 242.12 C 2277 242.12 2504 199.88 2732 199.88" transform="matrix(1,0,0,1,-167.56243896484375,0)" style="fill:none;stroke:rgb(231, 184, 53);transform:matrix(1, 0, 0, 1, -167.562, 0);;animation:none"></path>
<path stroke-width="2" stroke-opacity="0" stroke="rgb(231, 184, 53)" fill="none" d="M 0 200.42 C 228 200.42 455 241.58 683 241.58 C 911 241.58 1138 200.42 1366 200.42 C 1594 200.42 1821 241.58 2049 241.58 C 2277 241.58 2504 200.42 2732 200.42" transform="matrix(1,0,0,1,-174.84800720214844,0)" style="fill:none;stroke:rgb(231, 184, 53);transform:matrix(1, 0, 0, 1, -174.848, 0);;animation:none"></path>
<path stroke-width="2" stroke-opacity="0" stroke="rgb(231, 184, 53)" fill="none" d="M 0 200.991 C 228 200.991 455 241.009 683 241.009 C 911 241.009 1138 200.991 1366 200.991 C 1594 200.991 1821 241.009 2049 241.009 C 2277 241.009 2504 200.991 2732 200.991" transform="matrix(1,0,0,1,-182.1332244873047,0)" style="fill:none;stroke:rgb(231, 184, 53);transform:matrix(1, 0, 0, 1, -182.133, 0);;animation:none"></path>
<path stroke-width="2" stroke-opacity="0" stroke="rgb(231, 184, 53)" fill="none" d="M 0 201.593 C 228 201.593 455 240.407 683 240.407 C 911 240.407 1138 201.593 1366 201.593 C 1594 201.593 1821 240.407 2049 240.407 C 2277 240.407 2504 201.593 2732 201.593" transform="matrix(1,0,0,1,-189.41842651367188,0)" style="fill:none;stroke:rgb(231, 184, 53);transform:matrix(1, 0, 0, 1, -189.418, 0);;animation:none"></path>
<path stroke-width="2" stroke-opacity="0" stroke="rgb(231, 184, 53)" fill="none" d="M 0 202.228 C 228 202.228 455 239.772 683 239.772 C 911 239.772 1138 202.228 1366 202.228 C 1594 202.228 1821 239.772 2049 239.772 C 2277 239.772 2504 202.228 2732 202.228" transform="matrix(1,0,0,1,-196.70399475097656,0)" style="fill:none;stroke:rgb(231, 184, 53);transform:matrix(1, 0, 0, 1, -196.704, 0);;animation:none"></path>
<path stroke-width="2" stroke-opacity="0" stroke="rgb(231, 184, 53)" fill="none" d="M 0 202.896 C 228 202.896 455 239.104 683 239.104 C 911 239.104 1138 202.896 1366 202.896 C 1594 202.896 1821 239.104 2049 239.104 C 2277 239.104 2504 202.896 2732 202.896" transform="matrix(1,0,0,1,-203.98922729492188,0)" style="fill:none;stroke:rgb(231, 184, 53);transform:matrix(1, 0, 0, 1, -203.989, 0);;animation:none"></path>
<path stroke-width="2" stroke-opacity="0" stroke="rgb(231, 184, 53)" fill="none" d="M 0 203.596 C 228 203.596 455 238.404 683 238.404 C 911 238.404 1138 203.596 1366 203.596 C 1594 203.596 1821 238.404 2049 238.404 C 2277 238.404 2504 203.596 2732 203.596" transform="matrix(1,0,0,1,-211.27442932128906,0)" style="fill:none;stroke:rgb(231, 184, 53);transform:matrix(1, 0, 0, 1, -211.274, 0);;animation:none"></path>
<path stroke-width="2" stroke-opacity="0" stroke="rgb(231, 184, 53)" fill="none" d="M 0 204.33 C 228 204.33 455 237.67 683 237.67 C 911 237.67 1138 204.33 1366 204.33 C 1594 204.33 1821 237.67 2049 237.67 C 2277 237.67 2504 204.33 2732 204.33" transform="matrix(1,0,0,1,-218.55999755859375,0)" style="fill:none;stroke:rgb(231, 184, 53);transform:matrix(1, 0, 0, 1, -218.56, 0);;animation:none"></path>
<path stroke-width="2" stroke-opacity="0" stroke="rgb(231, 184, 53)" fill="none" d="M 0 205.097 C 228 205.097 455 236.903 683 236.903 C 911 236.903 1138 205.097 1366 205.097 C 1594 205.097 1821 236.903 2049 236.903 C 2277 236.903 2504 205.097 2732 205.097" transform="matrix(1,0,0,1,-225.84523010253906,0)" style="fill:none;stroke:rgb(231, 184, 53);transform:matrix(1, 0, 0, 1, -225.845, 0);;animation:none"></path>
<path stroke-width="2" stroke-opacity="0" stroke="rgb(231, 184, 53)" fill="none" d="M 0 205.897 C 228 205.897 455 236.103 683 236.103 C 911 236.103 1138 205.897 1366 205.897 C 1594 205.897 1821 236.103 2049 236.103 C 2277 236.103 2504 205.897 2732 205.897" transform="matrix(1,0,0,1,-233.1304473876953,0)" style="fill:none;stroke:rgb(231, 184, 53);transform:matrix(1, 0, 0, 1, -233.13, 0);;animation:none"></path>
<path stroke-width="2" stroke-opacity="0" stroke="rgb(231, 184, 53)" fill="none" d="M 0 206.73 C 228 206.73 455 235.27 683 235.27 C 911 235.27 1138 206.73 1366 206.73 C 1594 206.73 1821 235.27 2049 235.27 C 2277 235.27 2504 206.73 2732 206.73" transform="matrix(1,0,0,1,-240.41600036621094,0)" style="fill:none;stroke:rgb(231, 184, 53);transform:matrix(1, 0, 0, 1, -240.416, 0);;animation:none"></path>
<path stroke-width="2" stroke-opacity="0" stroke="rgb(231, 184, 53)" fill="none" d="M 0 207.596 C 228 207.596 455 234.404 683 234.404 C 911 234.404 1138 207.596 1366 207.596 C 1594 207.596 1821 234.404 2049 234.404 C 2277 234.404 2504 207.596 2732 207.596" transform="matrix(1,0,0,1,-247.7012176513672,0)" style="fill:none;stroke:rgb(231, 184, 53);transform:matrix(1, 0, 0, 1, -247.701, 0);;animation:none"></path>
<path stroke-width="2" stroke-opacity="0" stroke="rgb(231, 184, 53)" fill="none" d="M 0 208.493 C 228 208.493 455 233.507 683 233.507 C 911 233.507 1138 208.493 1366 208.493 C 1594 208.493 1821 233.507 2049 233.507 C 2277 233.507 2504 208.493 2732 208.493" transform="matrix(1,0,0,1,-254.9864501953125,0)" style="fill:none;stroke:rgb(231, 184, 53);transform:matrix(1, 0, 0, 1, -254.986, 0);;animation:none"></path>
<path stroke-width="2" stroke-opacity="0" stroke="rgb(231, 184, 53)" fill="none" d="M 0 209.422 C 228 209.422 455 232.578 683 232.578 C 911 232.578 1138 209.422 1366 209.422 C 1594 209.422 1821 232.578 2049 232.578 C 2277 232.578 2504 209.422 2732 209.422" transform="matrix(1,0,0,1,-262.2720031738281,0)" style="fill:none;stroke:rgb(231, 184, 53);transform:matrix(1, 0, 0, 1, -262.272, 0);;animation:none"></path>
<path stroke-width="2" stroke-opacity="0" stroke="rgb(231, 184, 53)" fill="none" d="M 0 210.38 C 228 210.38 455 231.62 683 231.62 C 911 231.62 1138 210.38 1366 210.38 C 1594 210.38 1821 231.62 2049 231.62 C 2277 231.62 2504 210.38 2732 210.38" transform="matrix(1,0,0,1,-269.5572204589844,0)" style="fill:none;stroke:rgb(231, 184, 53);transform:matrix(1, 0, 0, 1, -269.557, 0);;animation:none"></path>
<path stroke-width="2" stroke-opacity="0" stroke="rgb(231, 184, 53)" fill="none" d="M 0 211.367 C 228 211.367 455 230.633 683 230.633 C 911 230.633 1138 211.367 1366 211.367 C 1594 211.367 1821 230.633 2049 230.633 C 2277 230.633 2504 211.367 2732 211.367" transform="matrix(1,0,0,1,-276.8424377441406,0)" style="fill:none;stroke:rgb(231, 184, 53);transform:matrix(1, 0, 0, 1, -276.842, 0);;animation:none"></path>
<path stroke-width="2" stroke-opacity="0" stroke="rgb(231, 184, 53)" fill="none" d="M 0 212.38 C 228 212.38 455 229.62 683 229.62 C 911 229.62 1138 212.38 1366 212.38 C 1594 212.38 1821 229.62 2049 229.62 C 2277 229.62 2504 212.38 2732 212.38" transform="matrix(1,0,0,1,-284.12799072265625,0)" style="fill:none;stroke:rgb(231, 184, 53);transform:matrix(1, 0, 0, 1, -284.128, 0);;animation:none"></path>
<path stroke-width="2" stroke-opacity="0" stroke="rgb(231, 184, 53)" fill="none" d="M 0 213.418 C 228 213.418 455 228.582 683 228.582 C 911 228.582 1138 213.418 1366 213.418 C 1594 213.418 1821 228.582 2049 228.582 C 2277 228.582 2504 213.418 2732 213.418" transform="matrix(1,0,0,1,-291.4132080078125,0)" style="fill:none;stroke:rgb(231, 184, 53);transform:matrix(1, 0, 0, 1, -291.413, 0);;animation:none"></path>
<path stroke-width="2" stroke-opacity="0" stroke="rgb(231, 184, 53)" fill="none" d="M 0 214.478 C 228 214.478 455 227.522 683 227.522 C 911 227.522 1138 214.478 1366 214.478 C 1594 214.478 1821 227.522 2049 227.522 C 2277 227.522 2504 214.478 2732 214.478" transform="matrix(1,0,0,1,-298.69842529296875,0)" style="fill:none;stroke:rgb(231, 184, 53);transform:matrix(1, 0, 0, 1, -298.698, 0);;animation:none"></path>
<path stroke-width="2" stroke-opacity="0" stroke="rgb(231, 184, 53)" fill="none" d="M 0 215.557 C 228 215.557 455 226.443 683 226.443 C 911 226.443 1138 215.557 1366 215.557 C 1594 215.557 1821 226.443 2049 226.443 C 2277 226.443 2504 215.557 2732 215.557" transform="matrix(1,0,0,1,-305.9840087890625,0)" style="fill:none;stroke:rgb(231, 184, 53);transform:matrix(1, 0, 0, 1, -305.984, 0);;animation:none"></path>
<path stroke-width="2" stroke-opacity="0" stroke="rgb(231, 184, 53)" fill="none" d="M 0 216.654 C 228 216.654 455 225.346 683 225.346 C 911 225.346 1138 216.654 1366 216.654 C 1594 216.654 1821 225.346 2049 225.346 C 2277 225.346 2504 216.654 2732 216.654" transform="matrix(1,0,0,1,-313.26922607421875,0)" style="fill:none;stroke:rgb(231, 184, 53);transform:matrix(1, 0, 0, 1, -313.269, 0);;animation:none"></path>
<path stroke-width="2" stroke-opacity="0" stroke="rgb(231, 184, 53)" fill="none" d="M 0 217.764 C 228 217.764 455 224.236 683 224.236 C 911 224.236 1138 217.764 1366 217.764 C 1594 217.764 1821 224.236 2049 224.236 C 2277 224.236 2504 217.764 2732 217.764" transform="matrix(1,0,0,1,-320.554443359375,0)" style="fill:none;stroke:rgb(231, 184, 53);transform:matrix(1, 0, 0, 1, -320.554, 0);;animation:none"></path>
<path stroke-width="2" stroke-opacity="0" stroke="rgb(231, 184, 53)" fill="none" d="M 0 218.884 C 228 218.884 455 223.116 683 223.116 C 911 223.116 1138 218.884 1366 218.884 C 1594 218.884 1821 223.116 2049 223.116 C 2277 223.116 2504 218.884 2732 218.884" transform="matrix(1,0,0,1,-327.8399963378906,0)" style="fill:none;stroke:rgb(231, 184, 53);transform:matrix(1, 0, 0, 1, -327.84, 0);;animation:none"></path>
<path stroke-width="2" stroke-opacity="0.022727272727272728" stroke="rgb(231, 184, 53)" fill="none" d="M 0 220.011 C 228 220.011 455 221.989 683 221.989 C 911 221.989 1138 220.011 1366 220.011 C 1594 220.011 1821 221.989 2049 221.989 C 2277 221.989 2504 220.011 2732 220.011" transform="matrix(1,0,0,1,-335.1252136230469,0)" style="fill:none;stroke:rgb(231, 184, 53);transform:matrix(1, 0, 0, 1, -335.125, 0);;animation:none"></path>
<path stroke-width="2" stroke-opacity="0.045454545454545456" stroke="rgb(231, 184, 53)" fill="none" d="M 0 221.141 C 228 221.141 455 220.859 683 220.859 C 911 220.859 1138 221.141 1366 221.141 C 1594 221.141 1821 220.859 2049 220.859 C 2277 220.859 2504 221.141 2732 221.141" transform="matrix(1,0,0,1,-342.4104309082031,0)" style="fill:none;stroke:rgb(231, 184, 53);transform:matrix(1, 0, 0, 1, -342.41, 0);;animation:none"></path>
<path stroke-width="2" stroke-opacity="0.06818181818181818" stroke="rgb(231, 184, 53)" fill="none" d="M 0 222.271 C 228 222.271 455 219.729 683 219.729 C 911 219.729 1138 222.271 1366 222.271 C 1594 222.271 1821 219.729 2049 219.729 C 2277 219.729 2504 222.271 2732 222.271" transform="matrix(1,0,0,1,-349.6960144042969,0)" style="fill:none;stroke:rgb(231, 184, 53);transform:matrix(1, 0, 0, 1, -349.696, 0);;animation:none"></path>
<path stroke-width="2" stroke-opacity="0.09090909090909091" stroke="rgb(231, 184, 53)" fill="none" d="M 0 223.397 C 228 223.397 455 218.603 683 218.603 C 911 218.603 1138 223.397 1366 223.397 C 1594 223.397 1821 218.603 2049 218.603 C 2277 218.603 2504 223.397 2732 223.397" transform="matrix(1,0,0,1,-356.9812316894531,0)" style="fill:none;stroke:rgb(231, 184, 53);transform:matrix(1, 0, 0, 1, -356.981, 0);;animation:none"></path>
<path stroke-width="2" stroke-opacity="0.11363636363636363" stroke="rgb(231, 184, 53)" fill="none" d="M 0 224.515 C 228 224.515 455 217.485 683 217.485 C 911 217.485 1138 224.515 1366 224.515 C 1594 224.515 1821 217.485 2049 217.485 C 2277 217.485 2504 224.515 2732 224.515" transform="matrix(1,0,0,1,-364.2664489746094,0)" style="fill:none;stroke:rgb(231, 184, 53);transform:matrix(1, 0, 0, 1, -364.266, 0);;animation:none"></path>
<path stroke-width="2" stroke-opacity="0.13636363636363635" stroke="rgb(231, 184, 53)" fill="none" d="M 0 225.622 C 228 225.622 455 216.378 683 216.378 C 911 216.378 1138 225.622 1366 225.622 C 1594 225.622 1821 216.378 2049 216.378 C 2277 216.378 2504 225.622 2732 225.622" transform="matrix(1,0,0,1,-371.5520324707031,0)" style="fill:none;stroke:rgb(231, 184, 53);transform:matrix(1, 0, 0, 1, -371.552, 0);;animation:none"></path>
<path stroke-width="2" stroke-opacity="0.1590909090909091" stroke="rgb(231, 184, 53)" fill="none" d="M 0 226.714 C 228 226.714 455 215.286 683 215.286 C 911 215.286 1138 226.714 1366 226.714 C 1594 226.714 1821 215.286 2049 215.286 C 2277 215.286 2504 226.714 2732 226.714" transform="matrix(1,0,0,1,-378.83721923828125,0)" style="fill:none;stroke:rgb(231, 184, 53);transform:matrix(1, 0, 0, 1, -378.837, 0);;animation:none"></path>
<path stroke-width="2" stroke-opacity="0.18181818181818182" stroke="rgb(231, 184, 53)" fill="none" d="M 0 227.789 C 228 227.789 455 214.211 683 214.211 C 911 214.211 1138 227.789 1366 227.789 C 1594 227.789 1821 214.211 2049 214.211 C 2277 214.211 2504 227.789 2732 227.789" transform="matrix(1,0,0,1,-386.1224365234375,0)" style="fill:none;stroke:rgb(231, 184, 53);transform:matrix(1, 0, 0, 1, -386.122, 0);;animation:none"></path>
<path stroke-width="2" stroke-opacity="0.20454545454545456" stroke="rgb(231, 184, 53)" fill="none" d="M 0 228.844 C 228 228.844 455 213.156 683 213.156 C 911 213.156 1138 228.844 1366 228.844 C 1594 228.844 1821 213.156 2049 213.156 C 2277 213.156 2504 228.844 2732 228.844" transform="matrix(1,0,0,1,-393.4079895019531,0)" style="fill:none;stroke:rgb(231, 184, 53);transform:matrix(1, 0, 0, 1, -393.408, 0);;animation:none"></path>
<path stroke-width="2" stroke-opacity="0.22727272727272727" stroke="rgb(231, 184, 53)" fill="none" d="M 0 229.876 C 228 229.876 455 212.124 683 212.124 C 911 212.124 1138 229.876 1366 229.876 C 1594 229.876 1821 212.124 2049 212.124 C 2277 212.124 2504 229.876 2732 229.876" transform="matrix(1,0,0,1,-400.6932373046875,0)" style="fill:none;stroke:rgb(231, 184, 53);transform:matrix(1, 0, 0, 1, -400.693, 0);;animation:none"></path>
<path stroke-width="2" stroke-opacity="0.25" stroke="rgb(231, 184, 53)" fill="none" d="M 0 230.883 C 228 230.883 455 211.117 683 211.117 C 911 211.117 1138 230.883 1366 230.883 C 1594 230.883 1821 211.117 2049 211.117 C 2277 211.117 2504 230.883 2732 230.883" transform="matrix(1,0,0,1,-407.97845458984375,0)" style="fill:none;stroke:rgb(231, 184, 53);transform:matrix(1, 0, 0, 1, -407.978, 0);;animation:none"></path>
<path stroke-width="2" stroke-opacity="0.2727272727272727" stroke="rgb(231, 184, 53)" fill="none" d="M 0 231.862 C 228 231.862 455 210.138 683 210.138 C 911 210.138 1138 231.862 1366 231.862 C 1594 231.862 1821 210.138 2049 210.138 C 2277 210.138 2504 231.862 2732 231.862" transform="matrix(1,0,0,1,-415.26397705078125,0)" style="fill:none;stroke:rgb(231, 184, 53);transform:matrix(1, 0, 0, 1, -415.264, 0);;animation:none"></path>
<path stroke-width="2" stroke-opacity="0.29545454545454547" stroke="rgb(231, 184, 53)" fill="none" d="M 0 232.813 C 228 232.813 455 209.187 683 209.187 C 911 209.187 1138 232.813 1366 232.813 C 1594 232.813 1821 209.187 2049 209.187 C 2277 209.187 2504 232.813 2732 232.813" transform="matrix(1,0,0,1,-422.5492248535156,0)" style="fill:none;stroke:rgb(231, 184, 53);transform:matrix(1, 0, 0, 1, -422.549, 0);;animation:none"></path>
<path stroke-width="2" stroke-opacity="0.3181818181818182" stroke="rgb(231, 184, 53)" fill="none" d="M 0 233.734 C 228 233.734 455 208.266 683 208.266 C 911 208.266 1138 233.734 1366 233.734 C 1594 233.734 1821 208.266 2049 208.266 C 2277 208.266 2504 233.734 2732 233.734" transform="matrix(1,0,0,1,-429.8344421386719,0)" style="fill:none;stroke:rgb(231, 184, 53);transform:matrix(1, 0, 0, 1, -429.834, 0);;animation:none"></path>
<path stroke-width="2" stroke-opacity="0.3409090909090909" stroke="rgb(231, 184, 53)" fill="none" d="M 0 234.624 C 228 234.624 455 207.376 683 207.376 C 911 207.376 1138 234.624 1366 234.624 C 1594 234.624 1821 207.376 2049 207.376 C 2277 207.376 2504 234.624 2732 234.624" transform="matrix(1,0,0,1,-437.1199951171875,0)" style="fill:none;stroke:rgb(231, 184, 53);transform:matrix(1, 0, 0, 1, -437.12, 0);;animation:none"></path>
<path stroke-width="2" stroke-opacity="0.36363636363636365" stroke="rgb(231, 184, 53)" fill="none" d="M 0 235.481 C 228 235.481 455 206.519 683 206.519 C 911 206.519 1138 235.481 1366 235.481 C 1594 235.481 1821 206.519 2049 206.519 C 2277 206.519 2504 235.481 2732 235.481" transform="matrix(1,0,0,1,-444.40521240234375,0)" style="fill:none;stroke:rgb(231, 184, 53);transform:matrix(1, 0, 0, 1, -444.405, 0);;animation:none"></path>
<path stroke-width="2" stroke-opacity="0.38636363636363635" stroke="rgb(231, 184, 53)" fill="none" d="M 0 236.306 C 228 236.306 455 205.694 683 205.694 C 911 205.694 1138 236.306 1366 236.306 C 1594 236.306 1821 205.694 2049 205.694 C 2277 205.694 2504 236.306 2732 236.306" transform="matrix(1,0,0,1,-451.6904602050781,0)" style="fill:none;stroke:rgb(231, 184, 53);transform:matrix(1, 0, 0, 1, -451.69, 0);;animation:none"></path>
<path stroke-width="2" stroke-opacity="0.4090909090909091" stroke="rgb(231, 184, 53)" fill="none" d="M 0 237.098 C 228 237.098 455 204.902 683 204.902 C 911 204.902 1138 237.098 1366 237.098 C 1594 237.098 1821 204.902 2049 204.902 C 2277 204.902 2504 237.098 2732 237.098" transform="matrix(1,0,0,1,-458.9759826660156,0)" style="fill:none;stroke:rgb(231, 184, 53);transform:matrix(1, 0, 0, 1, -458.976, 0);;animation:none"></path>
<path stroke-width="2" stroke-opacity="0.4318181818181818" stroke="rgb(231, 184, 53)" fill="none" d="M 0 237.857 C 228 237.857 455 204.143 683 204.143 C 911 204.143 1138 237.857 1366 237.857 C 1594 237.857 1821 204.143 2049 204.143 C 2277 204.143 2504 237.857 2732 237.857" transform="matrix(1,0,0,1,-466.2611999511719,0)" style="fill:none;stroke:rgb(231, 184, 53);transform:matrix(1, 0, 0, 1, -466.261, 0);;animation:none"></path>
<path stroke-width="2" stroke-opacity="0.45454545454545453" stroke="rgb(231, 184, 53)" fill="none" d="M 0 238.582 C 228 238.582 455 203.418 683 203.418 C 911 203.418 1138 238.582 1366 238.582 C 1594 238.582 1821 203.418 2049 203.418 C 2277 203.418 2504 238.582 2732 238.582" transform="matrix(1,0,0,1,-473.54644775390625,0)" style="fill:none;stroke:rgb(231, 184, 53);transform:matrix(1, 0, 0, 1, -473.546, 0);;animation:none"></path>
<path stroke-width="2" stroke-opacity="0.4772727272727273" stroke="rgb(231, 184, 53)" fill="none" d="M 0 239.274 C 228 239.274 455 202.726 683 202.726 C 911 202.726 1138 239.274 1366 239.274 C 1594 239.274 1821 202.726 2049 202.726 C 2277 202.726 2504 239.274 2732 239.274" transform="matrix(1,0,0,1,-480.8320007324219,0)" style="fill:none;stroke:rgb(231, 184, 53);transform:matrix(1, 0, 0, 1, -480.832, 0);;animation:none"></path>
<path stroke-width="2" stroke-opacity="0.5" stroke="rgb(231, 184, 53)" fill="none" d="M 0 239.934 C 228 239.934 455 202.066 683 202.066 C 911 202.066 1138 239.934 1366 239.934 C 1594 239.934 1821 202.066 2049 202.066 C 2277 202.066 2504 239.934 2732 239.934" transform="matrix(1,0,0,1,-488.1172180175781,0)" style="fill:none;stroke:rgb(231, 184, 53);transform:matrix(1, 0, 0, 1, -488.117, 0);;animation:none"></path>
<path stroke-width="2" stroke-opacity="0.5227272727272727" stroke="rgb(231, 184, 53)" fill="none" d="M 0 240.56 C 228 240.56 455 201.44 683 201.44 C 911 201.44 1138 240.56 1366 240.56 C 1594 240.56 1821 201.44 2049 201.44 C 2277 201.44 2504 240.56 2732 240.56" transform="matrix(1,0,0,1,-495.4024353027344,0)" style="fill:none;stroke:rgb(231, 184, 53);transform:matrix(1, 0, 0, 1, -495.402, 0);;animation:none"></path>
<path stroke-width="2" stroke-opacity="0.5454545454545454" stroke="rgb(231, 184, 53)" fill="none" d="M 0 241.155 C 228 241.155 455 200.845 683 200.845 C 911 200.845 1138 241.155 1366 241.155 C 1594 241.155 1821 200.845 2049 200.845 C 2277 200.845 2504 241.155 2732 241.155" transform="matrix(1,0,0,1,-502.68798828125,0)" style="fill:none;stroke:rgb(231, 184, 53);transform:matrix(1, 0, 0, 1, -502.688, 0);;animation:none"></path>
<path stroke-width="2" stroke-opacity="0.5681818181818182" stroke="rgb(231, 184, 53)" fill="none" d="M 0 241.718 C 228 241.718 455 200.282 683 200.282 C 911 200.282 1138 241.718 1366 241.718 C 1594 241.718 1821 200.282 2049 200.282 C 2277 200.282 2504 241.718 2732 241.718" transform="matrix(1,0,0,1,-509.97320556640625,0)" style="fill:none;stroke:rgb(231, 184, 53);transform:matrix(1, 0, 0, 1, -509.973, 0);;animation:none"></path>
<path stroke-width="2" stroke-opacity="0.5909090909090909" stroke="rgb(231, 184, 53)" fill="none" d="M 0 242.25 C 228 242.25 455 199.75 683 199.75 C 911 199.75 1138 242.25 1366 242.25 C 1594 242.25 1821 199.75 2049 199.75 C 2277 199.75 2504 242.25 2732 242.25" transform="matrix(1,0,0,1,-517.2584228515625,0)" style="fill:none;stroke:rgb(231, 184, 53);transform:matrix(1, 0, 0, 1, -517.258, 0);;animation:none"></path>
<path stroke-width="2" stroke-opacity="0.6136363636363636" stroke="rgb(231, 184, 53)" fill="none" d="M 0 242.752 C 228 242.752 455 199.248 683 199.248 C 911 199.248 1138 242.752 1366 242.752 C 1594 242.752 1821 199.248 2049 199.248 C 2277 199.248 2504 242.752 2732 242.752" transform="matrix(1,0,0,1,-524.5440063476562,0)" style="fill:none;stroke:rgb(231, 184, 53);transform:matrix(1, 0, 0, 1, -524.544, 0);;animation:none"></path>
<path stroke-width="2" stroke-opacity="0.6363636363636364" stroke="rgb(231, 184, 53)" fill="none" d="M 0 243.224 C 228 243.224 455 198.776 683 198.776 C 911 198.776 1138 243.224 1366 243.224 C 1594 243.224 1821 198.776 2049 198.776 C 2277 198.776 2504 243.224 2732 243.224" transform="matrix(1,0,0,1,-531.8292236328125,0)" style="fill:none;stroke:rgb(231, 184, 53);transform:matrix(1, 0, 0, 1, -531.829, 0);;animation:none"></path>
<path stroke-width="2" stroke-opacity="0.6590909090909091" stroke="rgb(231, 184, 53)" fill="none" d="M 0 243.667 C 228 243.667 455 198.333 683 198.333 C 911 198.333 1138 243.667 1366 243.667 C 1594 243.667 1821 198.333 2049 198.333 C 2277 198.333 2504 243.667 2732 243.667" transform="matrix(1,0,0,1,-539.1144409179688,0)" style="fill:none;stroke:rgb(231, 184, 53);transform:matrix(1, 0, 0, 1, -539.114, 0);;animation:none"></path>
<g></g></g><!-- [ldio] generated by https://loading.io --></svg>